# xmcd CD database file
#
# Track frame offsets:
#	150
#	19726
#	37095
#	51388
#	65263
#	83565
#	100054
#	113930
#	128504
#	144846
#	159729
#	174283
#	190412
#	208000
#	229315
#	245206
#	266049
#	280570
#	300918
#	320166
#
# Disc length: 4420 seconds
#
# Revision: 0
# Processed by: cddbd v1.5.2PL0 Copyright (c) Steve Scherf et al.
# Submitted via: CDex 1.51
#
DISCID=19114214
DTITLE=The Real Book Play-Along - Volume II
DYEAR=2010
DGENRE=Jazz
TTITLE0=Chameleon
TTITLE1=Chasin' The Trane
TTITLE2=Circle
TTITLE3=Cold Duck Time
TTITLE4=Come Rain Or Come Shine
TTITLE5=Comin' Home Baby
TTITLE6=Cool Blues
TTITLE7=Cousin Mary
TTITLE8=Crazeology
TTITLE9=Dance Of The Infidels
TTITLE10=Dat Dere
TTITLE11=Day By Day
TTITLE12=Dexter Rides Again
TTITLE13=Dindi
TTITLE14=Do I Love You Because You're Beautiful?
TTITLE15=Do Nothin' Till You Hear From Me
TTITLE16=Do You Know What It Means To Miss New Orleans
TTITLE17=Don't Explain
TTITLE18=Doxy
TTITLE19=The Drive
EXTD=YEAR: 2010
EXTT0=
EXTT1=
EXTT2=
EXTT3=
EXTT4=
EXTT5=
EXTT6=
EXTT7=
EXTT8=
EXTT9=
EXTT10=
EXTT11=
EXTT12=
EXTT13=
EXTT14=
EXTT15=
EXTT16=
EXTT17=
EXTT18=
EXTT19=
PLAYORDER=
